<svg width="2904" height="1122" viewBox="0 0 2904 1122" fill="none" xmlns="http://www.w3.org/2000/svg">
<path d="M102.918 250C84.5494 250 77.174 220.475 75.6433 208.715C73.9954 197.298 75.5255 185.691 80.0963 174.936C82.1053 169.819 85.5608 165.259 90.1233 161.706C94.6858 158.152 100.198 155.727 106.119 154.669C122.4 152.167 133.95 160.924 148.701 163.927C151.472 164.726 154.426 164.867 157.275 164.334C160.124 163.801 162.771 162.614 164.958 160.888C167.144 159.161 168.796 156.955 169.751 154.484C170.707 152.012 170.934 149.361 170.41 146.787C164.287 125.269 120.73 124.894 102.918 124.894C102.918 101.624 131.306 98.6215 151.623 100.373C163.676 101.42 175.544 103.772 186.969 107.379C193.927 109.506 201.998 114.885 209.652 114.385C221.202 113.509 223.568 102.75 218.558 94.8683C206.451 76.3525 172.08 74.8513 151.623 74.8513C151.623 49.83 175.698 45.076 198.798 48.8292C210.725 50.9402 222.349 54.2557 233.448 58.7126C240.545 61.4649 249.034 66.7194 256.827 64.3423C276.865 58.8377 255.992 39.5713 247.085 34.9424C240.835 31.8414 234.203 29.4063 227.325 27.6862C219.811 25.6845 210.626 26.4352 217.445 18.5535C228.107 10.0965 241.336 4.69462 255.435 3.04029C281.736 -2.46438 318.056 -3.46524 324.457 26.31C326.59 42.0303 322.394 57.9177 312.629 71.0981C286.698 110.961 254.603 147.313 217.306 179.065C197.548 197.274 176.136 213.97 153.293 228.982C139.377 237.99 121.009 250 102.918 250Z" fill="#006CA9"/>
<path d="M2020.33 872C2005.64 872 1999.74 848.38 1998.51 838.972C1997.2 829.838 1998.42 820.553 2002.08 811.949C2003.68 807.855 2006.45 804.207 2010.1 801.365C2013.75 798.522 2018.16 796.582 2022.9 795.735C2035.92 793.734 2045.16 800.739 2056.96 803.142C2059.18 803.781 2061.54 803.893 2063.82 803.467C2066.1 803.041 2068.22 802.091 2069.97 800.71C2071.72 799.329 2073.04 797.564 2073.8 795.587C2074.57 793.61 2074.75 791.489 2074.33 789.43C2069.43 772.215 2034.58 771.915 2020.33 771.915C2020.33 753.299 2043.05 750.897 2059.3 752.298C2068.94 753.136 2078.44 755.018 2087.58 757.903C2093.14 759.605 2099.6 763.908 2105.72 763.508C2114.96 762.807 2116.85 754.2 2112.85 747.895C2103.16 733.082 2075.66 731.881 2059.3 731.881C2059.3 711.864 2078.56 708.061 2097.04 711.063C2106.58 712.752 2115.88 715.405 2124.76 718.97C2130.44 721.172 2137.23 725.375 2143.46 723.474C2159.49 719.07 2142.79 703.657 2135.67 699.954C2130.67 697.473 2125.36 695.525 2119.86 694.149C2113.85 692.548 2106.5 693.148 2111.96 686.843C2120.49 680.077 2131.07 675.756 2142.35 674.432C2163.39 670.028 2192.44 669.228 2197.57 693.048C2199.27 705.624 2195.92 718.334 2188.1 728.878C2167.36 760.769 2141.68 789.85 2111.84 815.252C2096.04 829.819 2078.91 843.176 2060.63 855.186C2049.5 862.392 2034.81 872 2020.33 872Z" fill="#006CA9"/>
<path d="M325.367 479C316.332 506.709 313.319 519.714 303.667 538.681C304.819 539.558 305.951 540.485 307.041 541.474C316.912 532.566 324.811 522.09 328.611 506.576L336.152 508.362C331.96 525.476 322.92 537.465 312.323 547.061C312.92 547.797 313.496 548.55 314.049 549.319C325.39 547.698 335.766 544.288 345.015 536.065L350.22 541.729C340.494 550.375 329.462 554.403 318.267 556.372C318.578 557.009 318.88 557.653 319.162 558.299C341.292 560.619 359.397 557.054 370 540.301C342.004 534.198 362.562 485.113 325.365 479H325.367ZM265.495 538.068C261.582 538.045 257.892 538.664 254.788 539.956L254.749 539.879C250.371 541.894 246.262 544.687 242.64 548.247C228.074 562.563 226.22 584.545 237.06 600.824C235.042 595.821 234.142 590.296 234.867 584.509C235.951 575.846 240.637 566.789 249.753 558.106L255.152 563.579C247.005 571.338 243.398 578.757 242.563 585.441C241.726 592.125 243.632 598.272 247.287 603.617C253.721 613.029 265.878 619.39 275.982 619.778C285.825 619.062 295.471 614.999 303.016 607.584C319.72 591.168 319.72 564.663 303.016 548.247C301.912 547.161 300.765 546.153 299.577 545.211C303.683 549.916 306.631 555.702 307.585 562.38C308.819 571.025 306.693 580.959 300.174 591.666L293.503 587.75C299.329 578.182 300.854 570.108 299.901 563.439C298.949 556.769 295.508 551.32 290.569 547.086C283.78 541.266 274.105 538.12 265.496 538.069L265.495 538.068ZM218.32 604.943C197.549 604.99 190.199 606.951 170 627.508C197.559 626.291 184.154 671.171 214.634 679C216.118 659.163 223.874 643.75 238.916 615.479C229.028 621.83 220.365 629.567 213.997 641.474L207.119 637.928C213.343 626.29 221.713 618.098 230.843 611.653C220.087 612.539 209.599 615.148 198.994 621.729L194.854 615.288C204.16 609.513 213.537 606.476 222.796 604.969C221.252 604.959 219.73 604.94 218.319 604.943H218.32Z" fill="#006CA9"/>
<path d="M29 439.633C56.709 448.668 69.7144 451.681 88.6809 461.333C89.5585 460.181 90.485 459.049 91.474 457.959C82.5658 448.088 72.0903 440.189 56.576 436.389L58.3621 428.848C75.4764 433.04 87.465 442.08 97.0614 452.677C97.7974 452.08 98.5501 451.504 99.3185 450.951C97.6981 439.61 94.2879 429.234 86.0654 419.985L91.7291 414.78C100.375 424.506 104.403 435.538 106.372 446.733C107.009 446.422 107.653 446.12 108.299 445.838C110.619 423.708 107.054 405.603 90.3009 395C84.1985 422.996 35.1135 402.438 29 439.635V439.633ZM88.0683 499.505C88.0446 503.418 88.6642 507.108 89.956 510.212L89.8793 510.251C91.8944 514.629 94.6875 518.738 98.2467 522.36C112.563 536.926 134.545 538.78 150.824 527.94C145.821 529.958 140.296 530.858 134.509 530.133C125.846 529.049 116.789 524.363 108.106 515.247L113.579 509.848C121.338 517.995 128.757 521.602 135.441 522.437C142.125 523.274 148.272 521.368 153.617 517.713C163.029 511.279 169.39 499.122 169.778 489.018C169.062 479.175 164.999 469.529 157.584 461.984C141.168 445.28 114.663 445.28 98.2471 461.984C97.1614 463.088 96.1532 464.235 95.2112 465.423C99.9161 461.317 105.702 458.369 112.38 457.415C121.025 456.181 130.959 458.307 141.666 464.826L137.75 471.497C128.182 465.671 120.108 464.146 113.439 465.099C106.769 466.051 101.32 469.492 97.0863 474.431C91.2658 481.22 88.1201 490.895 88.0687 499.504L88.0683 499.505ZM154.943 546.68C154.99 567.451 156.951 574.801 177.508 595C176.291 567.441 221.171 580.846 229 550.366C209.163 548.882 193.75 541.126 165.479 526.084C171.83 535.972 179.567 544.635 191.474 551.003L187.928 557.881C176.29 551.657 168.098 543.287 161.653 534.157C162.539 544.913 165.148 555.401 171.729 566.006L165.288 570.146C159.513 560.84 156.476 551.463 154.969 542.204C154.959 543.748 154.94 545.27 154.943 546.681V546.68Z" fill="#006CA9"/>
<path d="M117 383.633C144.709 392.668 157.714 395.681 176.681 405.333C177.558 404.181 178.485 403.049 179.474 401.959C170.566 392.088 160.09 384.189 144.576 380.389L146.362 372.848C163.476 377.04 175.465 386.08 185.061 396.677C185.797 396.08 186.55 395.504 187.319 394.951C185.698 383.61 182.288 373.234 174.065 363.985L179.729 358.78C188.375 368.506 192.403 379.538 194.372 390.733C195.009 390.422 195.653 390.12 196.299 389.838C198.619 367.708 195.054 349.603 178.301 339C172.198 366.996 123.113 346.438 117 383.635V383.633ZM176.068 443.505C176.045 447.418 176.664 451.108 177.956 454.212L177.879 454.251C179.894 458.629 182.687 462.738 186.247 466.36C200.563 480.926 222.545 482.78 238.824 471.94C233.821 473.958 228.296 474.858 222.509 474.133C213.846 473.049 204.789 468.363 196.106 459.247L201.579 453.848C209.338 461.995 216.757 465.602 223.441 466.437C230.125 467.274 236.272 465.368 241.617 461.713C251.029 455.279 257.39 443.122 257.778 433.018C257.062 423.175 252.999 413.529 245.584 405.984C229.168 389.28 202.663 389.28 186.247 405.984C185.161 407.088 184.153 408.235 183.211 409.423C187.916 405.317 193.702 402.369 200.38 401.415C209.025 400.181 218.959 402.307 229.666 408.826L225.75 415.497C216.182 409.671 208.108 408.146 201.439 409.099C194.769 410.051 189.32 413.492 185.086 418.431C179.266 425.22 176.12 434.895 176.069 443.504L176.068 443.505ZM242.943 490.68C242.99 511.451 244.951 518.801 265.508 539C264.291 511.441 309.171 524.846 317 494.366C297.163 492.882 281.75 485.126 253.479 470.084C259.83 479.972 267.567 488.635 279.474 495.003L275.928 501.881C264.29 495.657 256.098 487.287 249.653 478.157C250.539 488.913 253.148 499.401 259.729 510.006L253.288 514.146C247.513 504.84 244.476 495.463 242.969 486.204C242.959 487.748 242.94 489.27 242.943 490.681V490.68Z" fill="#006CA9"/>
<path d="M2425.82 845.352C2420.52 861.651 2418.76 869.301 2413.09 880.458C2413.77 880.974 2414.43 881.519 2415.07 882.101C2420.86 876.861 2425.5 870.699 2427.72 861.573L2432.15 862.623C2429.69 872.691 2424.39 879.743 2418.17 885.388C2418.52 885.821 2418.86 886.263 2419.18 886.715C2425.84 885.762 2431.92 883.756 2437.35 878.919L2440.4 882.251C2434.69 887.337 2428.22 889.706 2421.66 890.865C2421.84 891.239 2422.02 891.618 2422.18 891.998C2435.16 893.363 2445.78 891.265 2452 881.411C2435.58 877.821 2447.64 848.948 2425.82 845.352H2425.82ZM2390.71 880.098C2388.41 880.084 2386.25 880.448 2384.43 881.208L2384.4 881.163C2381.84 882.348 2379.43 883.991 2377.3 886.085C2368.76 894.506 2367.67 907.437 2374.03 917.012C2372.85 914.07 2372.32 910.82 2372.74 907.416C2373.38 902.32 2376.13 896.992 2381.47 891.885L2384.64 895.104C2379.86 899.668 2377.75 904.032 2377.26 907.964C2376.77 911.896 2377.88 915.511 2380.03 918.655C2383.8 924.192 2390.93 927.934 2396.86 928.162C2402.63 927.741 2408.29 925.351 2412.71 920.989C2422.51 911.332 2422.51 895.742 2412.71 886.085C2412.07 885.446 2411.39 884.853 2410.7 884.299C2413.1 887.067 2414.83 890.471 2415.39 894.398C2416.12 899.484 2414.87 905.328 2411.05 911.625L2407.13 909.322C2410.55 903.694 2411.44 898.944 2410.89 895.021C2410.33 891.098 2408.31 887.893 2405.41 885.402C2401.43 881.979 2395.76 880.128 2390.71 880.098L2390.71 880.098ZM2363.04 919.436C2350.86 919.463 2346.54 920.617 2334.7 932.709C2350.86 931.994 2343 958.393 2360.88 962.999C2361.75 951.33 2366.3 942.263 2375.12 925.633C2369.32 929.369 2364.24 933.92 2360.5 940.924L2356.47 938.839C2360.12 931.993 2365.03 927.174 2370.38 923.383C2364.07 923.904 2357.92 925.438 2351.7 929.31L2349.27 925.521C2354.73 922.124 2360.23 920.337 2365.66 919.451C2364.76 919.445 2363.87 919.434 2363.04 919.436H2363.04Z" fill="#006CA9"/>
<path d="M2252 822.202C2268.25 827.516 2275.88 829.288 2287 834.966C2287.52 834.288 2288.06 833.623 2288.64 832.982C2283.42 827.175 2277.27 822.528 2268.17 820.293L2269.22 815.857C2279.26 818.323 2286.29 823.641 2291.92 829.874C2292.35 829.523 2292.79 829.184 2293.24 828.859C2292.29 822.188 2290.29 816.084 2285.47 810.644L2288.79 807.582C2293.86 813.303 2296.22 819.793 2297.38 826.378C2297.75 826.195 2298.13 826.017 2298.51 825.851C2299.87 812.834 2297.78 802.184 2287.95 795.947C2284.37 812.415 2255.59 800.322 2252 822.202V822.202ZM2286.64 857.42C2286.63 859.722 2286.99 861.893 2287.75 863.718L2287.71 863.741C2288.89 866.317 2290.53 868.734 2292.61 870.864C2301.01 879.433 2313.9 880.523 2323.45 874.147C2320.52 875.334 2317.28 875.863 2313.88 875.437C2308.8 874.799 2303.49 872.043 2298.4 866.68L2301.61 863.505C2306.16 868.297 2310.51 870.418 2314.43 870.91C2318.35 871.402 2321.95 870.281 2325.09 868.131C2330.61 864.346 2334.34 857.195 2334.57 851.251C2334.15 845.461 2331.77 839.787 2327.42 835.349C2317.79 825.523 2302.24 825.523 2292.61 835.349C2291.98 835.998 2291.39 836.673 2290.83 837.372C2293.59 834.957 2296.99 833.223 2300.9 832.662C2305.97 831.935 2311.8 833.186 2318.08 837.021L2315.78 840.945C2310.17 837.518 2305.44 836.621 2301.52 837.181C2297.61 837.742 2294.42 839.765 2291.93 842.671C2288.52 846.664 2286.67 852.356 2286.64 857.42L2286.64 857.42ZM2325.87 885.17C2325.89 897.389 2327.04 901.712 2339.1 913.594C2338.39 897.382 2364.71 905.268 2369.3 887.339C2357.67 886.466 2348.63 881.903 2332.05 873.055C2335.77 878.872 2340.31 883.967 2347.29 887.713L2345.21 891.759C2338.39 888.098 2333.58 883.174 2329.8 877.804C2330.32 884.131 2331.85 890.3 2335.71 896.539L2331.93 898.974C2328.55 893.5 2326.77 887.984 2325.88 882.537C2325.88 883.445 2325.87 884.341 2325.87 885.171V885.17Z" fill="#006CA9"/>
<path d="M2303.61 789.256C2319.86 794.571 2327.49 796.343 2338.62 802.021C2339.13 801.343 2339.67 800.677 2340.25 800.036C2335.03 794.23 2328.89 789.583 2319.79 787.348L2320.83 782.912C2330.87 785.378 2337.9 790.695 2343.53 796.929C2343.96 796.578 2344.4 796.239 2344.86 795.914C2343.9 789.243 2341.9 783.139 2337.08 777.698L2340.4 774.637C2345.47 780.358 2347.84 786.847 2348.99 793.433C2349.37 793.249 2349.74 793.072 2350.12 792.906C2351.48 779.889 2349.39 769.238 2339.57 763.001C2335.99 779.47 2307.2 767.377 2303.61 789.257V789.256ZM2338.26 824.475C2338.24 826.777 2338.61 828.948 2339.36 830.773L2339.32 830.796C2340.5 833.372 2342.14 835.788 2344.23 837.919C2352.62 846.487 2365.52 847.578 2375.06 841.201C2372.13 842.388 2368.89 842.918 2365.5 842.491C2360.41 841.854 2355.1 839.098 2350.01 833.735L2353.22 830.559C2357.77 835.351 2362.12 837.473 2366.04 837.964C2369.96 838.457 2373.57 837.336 2376.7 835.186C2382.22 831.401 2385.95 824.25 2386.18 818.306C2385.76 812.516 2383.38 806.842 2379.03 802.404C2369.4 792.578 2353.86 792.578 2344.23 802.404C2343.59 803.053 2343 803.728 2342.45 804.426C2345.21 802.012 2348.6 800.277 2352.52 799.716C2357.59 798.99 2363.41 800.241 2369.69 804.076L2367.4 808C2361.78 804.573 2357.05 803.675 2353.14 804.236C2349.23 804.796 2346.03 806.82 2343.55 809.725C2340.13 813.719 2338.29 819.41 2338.26 824.475L2338.26 824.475ZM2377.48 852.225C2377.51 864.443 2378.66 868.767 2390.71 880.648C2390 864.437 2416.32 872.323 2420.91 854.393C2409.28 853.52 2400.24 848.958 2383.66 840.109C2387.38 845.926 2391.92 851.022 2398.91 854.768L2396.83 858.814C2390 855.153 2385.2 850.229 2381.42 844.858C2381.93 851.186 2383.46 857.355 2387.32 863.593L2383.55 866.028C2380.16 860.555 2378.38 855.038 2377.49 849.592C2377.49 850.5 2377.48 851.395 2377.48 852.225V852.225Z" fill="#006CA9"/>
<path d="M365 887V867C365 855.065 360.259 843.619 351.82 835.18C343.381 826.741 331.935 822 320 822H80C68.0653 822 56.6193 826.741 48.1802 835.18C39.7411 843.619 35 855.065 35 867V948.12C25.0573 950.386 16.1792 955.962 9.82027 963.934C3.46137 971.907 -0.00117311 981.802 2.98142e-07 992V1107C2.98142e-07 1115.28 6.72 1122 15 1122H385C388.978 1122 392.794 1120.42 395.607 1117.61C398.42 1114.79 400 1110.98 400 1107V992C400.001 981.802 396.539 971.907 390.18 963.934C383.821 955.962 374.943 950.386 365 948.12V887ZM80 852H320C323.978 852 327.794 853.58 330.607 856.393C333.42 859.206 335 863.022 335 867V876.42L293.5 889.88C281.475 893.778 268.525 893.778 256.5 889.88L227.76 880.56C209.716 874.709 190.284 874.709 172.24 880.56L143.52 889.88C131.482 893.786 118.518 893.786 106.48 889.88L65 876.42V867C65 863.022 66.5804 859.206 69.3934 856.393C72.2064 853.58 76.0218 852 80 852ZM335 907.96V947H65V907.96L97.24 918.42C115.284 924.271 134.716 924.271 152.76 918.42L181.5 909.1C193.525 905.202 206.475 905.202 218.5 909.1L247.24 918.42C265.284 924.271 284.716 924.271 302.76 918.42L335 907.96ZM45 977H355C358.978 977 362.794 978.58 365.607 981.393C368.42 984.206 370 988.022 370 992V1008.6L311 1027.72C298.975 1031.62 286.025 1031.62 274 1027.72L227.76 1012.72C209.716 1006.87 190.284 1006.87 172.24 1012.72L126.02 1027.72C113.982 1031.63 101.018 1031.63 88.98 1027.72L30 1008.6V992C30 988.022 31.5804 984.206 34.3934 981.393C37.2064 978.58 41.0218 977 45 977ZM370 1040.14V1092H30V1040.14L79.74 1056.26C97.7842 1062.11 117.216 1062.11 135.26 1056.26L181.5 1041.26C193.525 1037.36 206.475 1037.36 218.5 1041.26L264.74 1056.26C282.784 1062.11 302.216 1062.11 320.26 1056.26L370 1040.14Z" fill="#006CA9"/>
<path d="M2738.5 906.333V893C2738.5 885.044 2736.13 877.413 2731.91 871.787C2727.69 866.161 2721.97 863 2716 863H2596C2590.03 863 2584.31 866.161 2580.09 871.787C2575.87 877.413 2573.5 885.044 2573.5 893V947.08C2568.53 948.591 2564.09 952.308 2560.91 957.623C2557.73 962.938 2556 969.535 2556 976.333V1053C2556 1058.52 2559.36 1063 2563.5 1063H2748.5C2750.49 1063 2752.4 1061.95 2753.8 1060.07C2755.21 1058.2 2756 1055.65 2756 1053V976.333C2756 969.535 2754.27 962.938 2751.09 957.623C2747.91 952.308 2743.47 948.591 2738.5 947.08V906.333ZM2596 883H2716C2717.99 883 2719.9 884.054 2721.3 885.929C2722.71 887.804 2723.5 890.348 2723.5 893V899.28L2702.75 908.253C2696.74 910.852 2690.26 910.852 2684.25 908.253L2669.88 902.04C2660.86 898.139 2651.14 898.139 2642.12 902.04L2627.76 908.253C2621.74 910.858 2615.26 910.858 2609.24 908.253L2588.5 899.28V893C2588.5 890.348 2589.29 887.804 2590.7 885.929C2592.1 884.054 2594.01 883 2596 883ZM2723.5 920.307V946.333H2588.5V920.307L2604.62 927.28C2613.64 931.181 2623.36 931.181 2632.38 927.28L2646.75 921.067C2652.76 918.468 2659.24 918.468 2665.25 921.067L2679.62 927.28C2688.64 931.181 2698.36 931.181 2707.38 927.28L2723.5 920.307ZM2578.5 966.333H2733.5C2735.49 966.333 2737.4 967.387 2738.8 969.262C2740.21 971.138 2741 973.681 2741 976.333V987.4L2711.5 1000.15C2705.49 1002.75 2699.01 1002.75 2693 1000.15L2669.88 990.147C2660.86 986.246 2651.14 986.246 2642.12 990.147L2619.01 1000.15C2612.99 1002.75 2606.51 1002.75 2600.49 1000.15L2571 987.4V976.333C2571 973.681 2571.79 971.138 2573.2 969.262C2574.6 967.387 2576.51 966.333 2578.5 966.333ZM2741 1008.43V1043H2571V1008.43L2595.87 1019.17C2604.89 1023.07 2614.61 1023.07 2623.63 1019.17L2646.75 1009.17C2652.76 1006.57 2659.24 1006.57 2665.25 1009.17L2688.37 1019.17C2697.39 1023.07 2707.11 1023.07 2716.13 1019.17L2741 1008.43Z" fill="#006CA9"/>
<path d="M491 134C491 147.132 493.587 160.136 498.612 172.268C503.638 184.401 511.003 195.425 520.289 204.711C529.575 213.997 540.599 221.362 552.732 226.388C564.864 231.413 577.868 234 591 234C604.132 234 617.136 231.413 629.268 226.388C641.401 221.362 652.425 213.997 661.711 204.711C670.997 195.425 678.362 184.401 683.388 172.268C688.413 160.136 691 147.132 691 134C691 120.868 688.413 107.864 683.388 95.7317C678.362 83.5991 670.997 72.5752 661.711 63.2893C652.425 54.0035 641.401 46.6375 629.268 41.612C617.136 36.5866 604.132 34 591 34C577.868 34 564.864 36.5866 552.732 41.612C540.599 46.6375 529.575 54.0035 520.289 63.2893C511.003 72.5752 503.638 83.5991 498.612 95.7317C493.587 107.864 491 120.868 491 134Z" stroke="#FA8F00" stroke-width="20" stroke-linecap="round" stroke-linejoin="round"/>
<path d="M622.111 100.668C620.098 97.176 617.174 94.2976 613.651 92.3403C610.128 90.3831 606.139 89.4208 602.111 89.5564H579.889C573.995 89.5564 568.343 91.8977 564.175 96.0652C560.008 100.233 557.667 105.885 557.667 111.779C557.667 117.672 560.008 123.325 564.175 127.492C568.343 131.66 573.995 134.001 579.889 134.001H602.111C608.005 134.001 613.657 136.342 617.824 140.51C621.992 144.677 624.333 150.329 624.333 156.223C624.333 162.117 621.992 167.769 617.824 171.937C613.657 176.104 608.005 178.445 602.111 178.445H579.889C575.861 178.581 571.872 177.619 568.349 175.661C564.826 173.704 561.902 170.826 559.889 167.334M591 78.4453V189.556" stroke="#FA8F00" stroke-width="20" stroke-linecap="round" stroke-linejoin="round"/>
<path d="M491 981C491 994.132 493.587 1007.14 498.612 1019.27C503.638 1031.4 511.003 1042.42 520.289 1051.71C529.575 1061 540.599 1068.36 552.732 1073.39C564.864 1078.41 577.868 1081 591 1081C604.132 1081 617.136 1078.41 629.268 1073.39C641.401 1068.36 652.425 1061 661.711 1051.71C670.997 1042.42 678.362 1031.4 683.388 1019.27C688.413 1007.14 691 994.132 691 981C691 967.868 688.413 954.864 683.388 942.732C678.362 930.599 670.997 919.575 661.711 910.289C652.425 901.003 641.401 893.638 629.268 888.612C617.136 883.587 604.132 881 591 881C577.868 881 564.864 883.587 552.732 888.612C540.599 893.638 529.575 901.003 520.289 910.289C511.003 919.575 503.638 930.599 498.612 942.732C493.587 954.864 491 967.868 491 981Z" stroke="#FA8F00" stroke-width="20" stroke-linecap="round" stroke-linejoin="round"/>
<path d="M622.111 947.668C620.098 944.176 617.174 941.298 613.651 939.34C610.128 937.383 606.139 936.421 602.111 936.556H579.889C573.995 936.556 568.343 938.898 564.175 943.065C560.008 947.233 557.667 952.885 557.667 958.779C557.667 964.672 560.008 970.325 564.175 974.492C568.343 978.66 573.995 981.001 579.889 981.001H602.111C608.005 981.001 613.657 983.342 617.824 987.51C621.992 991.677 624.333 997.329 624.333 1003.22C624.333 1009.12 621.992 1014.77 617.824 1018.94C613.657 1023.1 608.005 1025.45 602.111 1025.45H579.889C575.861 1025.58 571.872 1024.62 568.349 1022.66C564.826 1020.7 561.902 1017.83 559.889 1014.33M591 925.445V1036.56" stroke="#FA8F00" stroke-width="20" stroke-linecap="round" stroke-linejoin="round"/>
<path d="M491 504C491 517.132 493.587 530.136 498.612 542.268C503.638 554.401 511.003 565.425 520.289 574.711C529.575 583.997 540.599 591.362 552.732 596.388C564.864 601.413 577.868 604 591 604C604.132 604 617.136 601.413 629.268 596.388C641.401 591.362 652.425 583.997 661.711 574.711C670.997 565.425 678.362 554.401 683.388 542.268C688.413 530.136 691 517.132 691 504C691 490.868 688.413 477.864 683.388 465.732C678.362 453.599 670.997 442.575 661.711 433.289C652.425 424.003 641.401 416.638 629.268 411.612C617.136 406.587 604.132 404 591 404C577.868 404 564.864 406.587 552.732 411.612C540.599 416.638 529.575 424.003 520.289 433.289C511.003 442.575 503.638 453.599 498.612 465.732C493.587 477.864 491 490.868 491 504Z" stroke="#FA8F00" stroke-width="20" stroke-linecap="round" stroke-linejoin="round"/>
<path d="M622.111 470.668C620.098 467.176 617.174 464.298 613.651 462.34C610.128 460.383 606.139 459.421 602.111 459.556H579.889C573.995 459.556 568.343 461.898 564.175 466.065C560.008 470.233 557.667 475.885 557.667 481.779C557.667 487.672 560.008 493.325 564.175 497.492C568.343 501.66 573.995 504.001 579.889 504.001H602.111C608.005 504.001 613.657 506.342 617.824 510.51C621.992 514.677 624.333 520.329 624.333 526.223C624.333 532.117 621.992 537.769 617.824 541.937C613.657 546.104 608.005 548.445 602.111 548.445H579.889C575.861 548.581 571.872 547.619 568.349 545.661C564.826 543.704 561.902 540.826 559.889 537.334M591 448.445V559.556" stroke="#FA8F00" stroke-width="20" stroke-linecap="round" stroke-linejoin="round"/>
<path d="M719 504C719 517.132 721.587 530.136 726.612 542.268C731.638 554.401 739.003 565.425 748.289 574.711C757.575 583.997 768.599 591.362 780.732 596.388C792.864 601.413 805.868 604 819 604C832.132 604 845.136 601.413 857.268 596.388C869.401 591.362 880.425 583.997 889.711 574.711C898.997 565.425 906.362 554.401 911.388 542.268C916.413 530.136 919 517.132 919 504C919 490.868 916.413 477.864 911.388 465.732C906.362 453.599 898.997 442.575 889.711 433.289C880.425 424.003 869.401 416.638 857.268 411.612C845.136 406.587 832.132 404 819 404C805.868 404 792.864 406.587 780.732 411.612C768.599 416.638 757.575 424.003 748.289 433.289C739.003 442.575 731.638 453.599 726.612 465.732C721.587 477.864 719 490.868 719 504Z" stroke="#FA8F00" stroke-width="20" stroke-linecap="round" stroke-linejoin="round"/>
<path d="M850.111 470.668C848.098 467.176 845.174 464.298 841.651 462.34C838.128 460.383 834.139 459.421 830.111 459.556H807.889C801.995 459.556 796.343 461.898 792.175 466.065C788.008 470.233 785.667 475.885 785.667 481.779C785.667 487.672 788.008 493.325 792.175 497.492C796.343 501.66 801.995 504.001 807.889 504.001H830.111C836.005 504.001 841.657 506.342 845.824 510.51C849.992 514.677 852.333 520.329 852.333 526.223C852.333 532.117 849.992 537.769 845.824 541.937C841.657 546.104 836.005 548.445 830.111 548.445H807.889C803.861 548.581 799.872 547.619 796.349 545.661C792.826 543.704 789.902 540.826 787.889 537.334M819 448.445V559.556" stroke="#FA8F00" stroke-width="20" stroke-linecap="round" stroke-linejoin="round"/>
<path d="M719 981C719 994.132 721.587 1007.14 726.612 1019.27C731.638 1031.4 739.003 1042.42 748.289 1051.71C757.575 1061 768.599 1068.36 780.732 1073.39C792.864 1078.41 805.868 1081 819 1081C832.132 1081 845.136 1078.41 857.268 1073.39C869.401 1068.36 880.425 1061 889.711 1051.71C898.997 1042.42 906.362 1031.4 911.388 1019.27C916.413 1007.14 919 994.132 919 981C919 967.868 916.413 954.864 911.388 942.732C906.362 930.599 898.997 919.575 889.711 910.289C880.425 901.003 869.401 893.638 857.268 888.612C845.136 883.587 832.132 881 819 881C805.868 881 792.864 883.587 780.732 888.612C768.599 893.638 757.575 901.003 748.289 910.289C739.003 919.575 731.638 930.599 726.612 942.732C721.587 954.864 719 967.868 719 981Z" stroke="#FA8F00" stroke-width="20" stroke-linecap="round" stroke-linejoin="round"/>
<path d="M850.111 947.668C848.098 944.176 845.174 941.298 841.651 939.34C838.128 937.383 834.139 936.421 830.111 936.556H807.889C801.995 936.556 796.343 938.898 792.175 943.065C788.008 947.233 785.667 952.885 785.667 958.779C785.667 964.672 788.008 970.325 792.175 974.492C796.343 978.66 801.995 981.001 807.889 981.001H830.111C836.005 981.001 841.657 983.342 845.824 987.51C849.992 991.677 852.333 997.329 852.333 1003.22C852.333 1009.12 849.992 1014.77 845.824 1018.94C841.657 1023.1 836.005 1025.45 830.111 1025.45H807.889C803.861 1025.58 799.872 1024.62 796.349 1022.66C792.826 1020.7 789.902 1017.83 787.889 1014.33M819 925.445V1036.56" stroke="#FA8F00" stroke-width="20" stroke-linecap="round" stroke-linejoin="round"/>
<path d="M947 981C947 994.132 949.587 1007.14 954.612 1019.27C959.638 1031.4 967.003 1042.42 976.289 1051.71C985.575 1061 996.599 1068.36 1008.73 1073.39C1020.86 1078.41 1033.87 1081 1047 1081C1060.13 1081 1073.14 1078.41 1085.27 1073.39C1097.4 1068.36 1108.42 1061 1117.71 1051.71C1127 1042.42 1134.36 1031.4 1139.39 1019.27C1144.41 1007.14 1147 994.132 1147 981C1147 967.868 1144.41 954.864 1139.39 942.732C1134.36 930.599 1127 919.575 1117.71 910.289C1108.42 901.003 1097.4 893.638 1085.27 888.612C1073.14 883.587 1060.13 881 1047 881C1033.87 881 1020.86 883.587 1008.73 888.612C996.599 893.638 985.575 901.003 976.289 910.289C967.003 919.575 959.638 930.599 954.612 942.732C949.587 954.864 947 967.868 947 981Z" stroke="#FA8F00" stroke-width="20" stroke-linecap="round" stroke-linejoin="round"/>
<path d="M1078.11 947.668C1076.1 944.176 1073.17 941.298 1069.65 939.34C1066.13 937.383 1062.14 936.421 1058.11 936.556H1035.89C1030 936.556 1024.34 938.898 1020.18 943.065C1016.01 947.233 1013.67 952.885 1013.67 958.779C1013.67 964.672 1016.01 970.325 1020.18 974.492C1024.34 978.66 1030 981.001 1035.89 981.001H1058.11C1064 981.001 1069.66 983.342 1073.82 987.51C1077.99 991.677 1080.33 997.329 1080.33 1003.22C1080.33 1009.12 1077.99 1014.77 1073.82 1018.94C1069.66 1023.1 1064 1025.45 1058.11 1025.45H1035.89C1031.86 1025.58 1027.87 1024.62 1024.35 1022.66C1020.83 1020.7 1017.9 1017.83 1015.89 1014.33M1047 925.445V1036.56" stroke="#FA8F00" stroke-width="20" stroke-linecap="round" stroke-linejoin="round"/>
<path d="M1622 178C1622 191.132 1624.59 204.136 1629.61 216.268C1634.64 228.401 1642 239.425 1651.29 248.711C1660.58 257.997 1671.6 265.362 1683.73 270.388C1695.86 275.413 1708.87 278 1722 278C1735.13 278 1748.14 275.413 1760.27 270.388C1772.4 265.362 1783.42 257.997 1792.71 248.711C1802 239.425 1809.36 228.401 1814.39 216.268C1819.41 204.136 1822 191.132 1822 178C1822 164.868 1819.41 151.864 1814.39 139.732C1809.36 127.599 1802 116.575 1792.71 107.289C1783.42 98.0035 1772.4 90.6375 1760.27 85.612C1748.14 80.5866 1735.13 78 1722 78C1708.87 78 1695.86 80.5866 1683.73 85.612C1671.6 90.6375 1660.58 98.0035 1651.29 107.289C1642 116.575 1634.64 127.599 1629.61 139.732C1624.59 151.864 1622 164.868 1622 178Z" stroke="#FA8F00" stroke-width="20" stroke-linecap="round" stroke-linejoin="round"/>
<path d="M1753.11 144.668C1751.1 141.176 1748.17 138.298 1744.65 136.34C1741.13 134.383 1737.14 133.421 1733.11 133.556H1710.89C1705 133.556 1699.34 135.898 1695.18 140.065C1691.01 144.233 1688.67 149.885 1688.67 155.779C1688.67 161.672 1691.01 167.325 1695.18 171.492C1699.34 175.66 1705 178.001 1710.89 178.001H1733.11C1739 178.001 1744.66 180.342 1748.82 184.51C1752.99 188.677 1755.33 194.329 1755.33 200.223C1755.33 206.117 1752.99 211.769 1748.82 215.937C1744.66 220.104 1739 222.445 1733.11 222.445H1710.89C1706.86 222.581 1702.87 221.619 1699.35 219.661C1695.83 217.704 1692.9 214.826 1690.89 211.334M1722 122.445V233.556" stroke="#FA8F00" stroke-width="20" stroke-linecap="round" stroke-linejoin="round"/>
<path d="M1391.32 378.953C1233.48 385.95 1169 532.219 1169 679.004C1169 679.004 1255.26 536.72 1391.32 528.979" stroke="#737370" stroke-width="10" stroke-linecap="round" stroke-linejoin="round"/>
<path d="M1391.32 529.05V629.063L1560.96 473.277C1563.48 470.931 1565.5 467.99 1566.89 464.664C1568.28 461.337 1569 457.707 1569 454.032C1569 450.356 1568.28 446.726 1566.89 443.4C1565.5 440.073 1563.48 437.132 1560.96 434.786L1391.32 279V379.025" stroke="#737370" stroke-width="10" stroke-linecap="round" stroke-linejoin="round"/>
<path d="M1899.1 272.656C1924.99 282.08 1946.5 295.852 1960.35 310.476C1974.22 325.125 1980.29 340.501 1975.67 353.202C1971.05 365.903 1956.51 373.776 1936.47 376.082C1916.46 378.385 1891.13 375.11 1865.24 365.686C1839.35 356.262 1817.84 342.49 1804 327.866C1790.13 313.217 1784.05 297.841 1788.67 285.14C1793.29 272.439 1807.83 264.566 1827.87 262.26C1847.88 259.957 1873.21 263.232 1899.1 272.656Z" fill="#EBEDED" stroke="#82D1F5"/>
<path d="M2114.98 337.394C2147.36 349.179 2174.26 366.403 2191.58 384.701C2208.93 403.022 2216.57 422.293 2210.77 438.237C2204.96 454.181 2186.72 464.033 2161.66 466.918C2136.63 469.799 2104.95 465.701 2072.57 453.916C2040.19 442.131 2013.29 424.907 1995.96 406.61C1978.62 388.288 1970.98 369.018 1976.78 353.074C1982.58 337.129 2000.82 327.277 2025.89 324.392C2050.92 321.511 2082.6 325.609 2114.98 337.394Z" fill="#EBEDED" stroke="#82D1F5"/>
<path d="M2377.5 420.171C2416.36 434.317 2448.66 454.994 2469.46 476.964C2490.29 498.959 2499.49 522.123 2492.5 541.31C2485.52 560.498 2463.58 572.33 2433.49 575.793C2403.43 579.253 2365.4 574.332 2326.54 560.186C2287.67 546.039 2255.37 525.363 2234.57 503.393C2213.75 481.398 2204.55 458.234 2211.53 439.046C2218.52 419.859 2240.45 408.026 2270.54 404.563C2300.6 401.104 2338.63 406.025 2377.5 420.171Z" fill="#EBEDED" stroke="#82D1F5"/>
<path d="M2714.94 516.39C2766.78 535.258 2809.87 562.839 2837.62 592.155C2865.4 621.496 2877.72 652.447 2868.38 678.122C2859.03 703.797 2829.7 719.588 2789.56 724.207C2749.45 728.823 2698.72 722.257 2646.88 703.388C2595.04 684.52 2551.95 656.939 2524.2 627.623C2496.42 598.282 2484.1 567.331 2493.44 541.656C2502.79 515.981 2532.12 500.19 2572.26 495.57C2612.37 490.955 2663.1 497.521 2714.94 516.39Z" fill="#EBEDED" stroke="#82D1F5"/>
<circle cx="1976.14" cy="353.372" r="10" transform="rotate(20 1976.14 353.372)" fill="#006CA9"/>
<circle cx="2492.97" cy="541.481" r="10" transform="rotate(20 2492.97 541.481)" fill="#006CA9"/>
<circle cx="2211.06" cy="438.88" r="10" transform="rotate(20 2211.06 438.88)" fill="#006CA9"/>
<path d="M1907.11 375.636V412H1899.42V382.934H1899.21L1890.88 388.154V381.336L1899.89 375.636H1907.11ZM1930.01 412.799C1926.96 412.787 1924.33 412.036 1922.13 410.544C1919.94 409.053 1918.25 406.892 1917.07 404.063C1915.9 401.234 1915.32 397.831 1915.33 393.854C1915.33 389.888 1915.91 386.509 1917.09 383.715C1918.27 380.922 1919.96 378.797 1922.15 377.341C1924.35 375.873 1926.97 375.139 1930.01 375.139C1933.06 375.139 1935.67 375.873 1937.86 377.341C1940.06 378.809 1941.76 380.939 1942.94 383.733C1944.12 386.515 1944.71 389.888 1944.7 393.854C1944.7 397.843 1944.1 401.252 1942.92 404.081C1941.75 406.91 1940.07 409.07 1937.88 410.562C1935.69 412.053 1933.07 412.799 1930.01 412.799ZM1930.01 406.425C1932.1 406.425 1933.76 405.377 1935 403.282C1936.25 401.187 1936.86 398.044 1936.85 393.854C1936.85 391.096 1936.56 388.799 1936 386.964C1935.44 385.13 1934.65 383.751 1933.62 382.827C1932.6 381.904 1931.4 381.442 1930.01 381.442C1927.94 381.442 1926.28 382.478 1925.04 384.55C1923.8 386.621 1923.17 389.723 1923.16 393.854C1923.16 396.647 1923.44 398.979 1923.99 400.849C1924.56 402.708 1925.36 404.105 1926.39 405.04C1927.42 405.963 1928.63 406.425 1930.01 406.425ZM1964.44 412.799C1961.38 412.787 1958.75 412.036 1956.55 410.544C1954.36 409.053 1952.68 406.892 1951.49 404.063C1950.32 401.234 1949.74 397.831 1949.75 393.854C1949.75 389.888 1950.34 386.509 1951.51 383.715C1952.69 380.922 1954.38 378.797 1956.57 377.341C1958.77 375.873 1961.39 375.139 1964.44 375.139C1967.48 375.139 1970.09 375.873 1972.28 377.341C1974.49 378.809 1976.18 380.939 1977.36 383.733C1978.55 386.515 1979.13 389.888 1979.12 393.854C1979.12 397.843 1978.53 401.252 1977.35 404.081C1976.17 406.91 1974.49 409.07 1972.3 410.562C1970.11 412.053 1967.49 412.799 1964.44 412.799ZM1964.44 406.425C1966.52 406.425 1968.18 405.377 1969.43 403.282C1970.67 401.187 1971.28 398.044 1971.27 393.854C1971.27 391.096 1970.99 388.799 1970.42 386.964C1969.86 385.13 1969.07 383.751 1968.04 382.827C1967.02 381.904 1965.82 381.442 1964.44 381.442C1962.37 381.442 1960.71 382.478 1959.47 384.55C1958.22 386.621 1957.59 389.723 1957.58 393.854C1957.58 396.647 1957.86 398.979 1958.42 400.849C1958.99 402.708 1959.78 404.105 1960.81 405.04C1961.84 405.963 1963.05 406.425 1964.44 406.425Z" fill="#737370"/>
<path d="M2419.21 578.636V615H2411.52V585.934H2411.31L2402.98 591.154V584.336L2411.98 578.636H2419.21ZM2441.13 615.497C2438.63 615.497 2436.39 615.036 2434.42 614.112C2432.47 613.189 2430.92 611.916 2429.77 610.295C2428.62 608.673 2428.03 606.815 2427.98 604.719H2435.44C2435.52 606.128 2436.11 607.27 2437.21 608.146C2438.31 609.022 2439.62 609.46 2441.13 609.46C2442.34 609.46 2443.41 609.194 2444.33 608.661C2445.27 608.117 2445.99 607.365 2446.51 606.406C2447.05 605.436 2447.31 604.323 2447.31 603.068C2447.31 601.79 2447.04 600.665 2446.5 599.695C2445.96 598.724 2445.22 597.966 2444.28 597.422C2443.33 596.877 2442.25 596.599 2441.03 596.587C2439.96 596.587 2438.93 596.806 2437.92 597.244C2436.93 597.682 2436.15 598.28 2435.6 599.038L2428.76 597.812L2430.48 578.636H2452.71V584.922H2436.82L2435.88 594.031H2436.09C2436.73 593.131 2437.7 592.385 2438.99 591.793C2440.28 591.201 2441.72 590.906 2443.32 590.906C2445.51 590.906 2447.46 591.42 2449.18 592.45C2450.89 593.48 2452.25 594.895 2453.24 596.694C2454.24 598.481 2454.73 600.541 2454.72 602.873C2454.73 605.323 2454.16 607.501 2453.01 609.407C2451.88 611.301 2450.29 612.792 2448.24 613.881C2446.2 614.959 2443.83 615.497 2441.13 615.497ZM2474.34 615.799C2471.28 615.787 2468.66 615.036 2466.45 613.544C2464.26 612.053 2462.58 609.892 2461.39 607.063C2460.22 604.234 2459.64 600.831 2459.65 596.854C2459.65 592.888 2460.24 589.509 2461.41 586.715C2462.6 583.922 2464.28 581.797 2466.47 580.341C2468.67 578.873 2471.3 578.139 2474.34 578.139C2477.38 578.139 2480 578.873 2482.19 580.341C2484.39 581.809 2486.08 583.939 2487.26 586.733C2488.45 589.515 2489.03 592.888 2489.02 596.854C2489.02 600.843 2488.43 604.252 2487.25 607.081C2486.07 609.91 2484.39 612.07 2482.2 613.562C2480.01 615.053 2477.39 615.799 2474.34 615.799ZM2474.34 609.425C2476.42 609.425 2478.08 608.377 2479.33 606.282C2480.57 604.187 2481.19 601.044 2481.17 596.854C2481.17 594.096 2480.89 591.799 2480.32 589.964C2479.77 588.13 2478.97 586.751 2477.94 585.827C2476.92 584.904 2475.72 584.442 2474.34 584.442C2472.27 584.442 2470.61 585.478 2469.37 587.55C2468.12 589.621 2467.5 592.723 2467.48 596.854C2467.48 599.647 2467.76 601.979 2468.32 603.849C2468.89 605.708 2469.69 607.105 2470.72 608.04C2471.75 608.963 2472.95 609.425 2474.34 609.425Z" fill="#737370"/>
<path d="M2137.58 467.636V504H2129.89V474.934H2129.68L2121.35 480.154V473.336L2130.35 467.636H2137.58ZM2146.22 504V498.46L2159.16 486.475C2160.26 485.41 2161.19 484.451 2161.93 483.599C2162.69 482.746 2163.27 481.912 2163.66 481.095C2164.05 480.267 2164.24 479.373 2164.24 478.414C2164.24 477.349 2164 476.431 2163.51 475.662C2163.03 474.881 2162.37 474.283 2161.53 473.869C2160.68 473.442 2159.73 473.229 2158.67 473.229C2157.55 473.229 2156.58 473.454 2155.75 473.904C2154.93 474.354 2154.29 474.999 2153.84 475.839C2153.39 476.68 2153.16 477.68 2153.16 478.84H2145.86C2145.86 476.461 2146.4 474.395 2147.48 472.643C2148.56 470.892 2150.07 469.536 2152.01 468.577C2153.95 467.619 2156.19 467.139 2158.72 467.139C2161.32 467.139 2163.59 467.601 2165.52 468.524C2167.46 469.436 2168.97 470.702 2170.05 472.324C2171.13 473.946 2171.66 475.804 2171.66 477.899C2171.66 479.272 2171.39 480.628 2170.85 481.965C2170.31 483.303 2169.36 484.788 2167.99 486.422C2166.62 488.044 2164.68 489.991 2162.18 492.263L2156.87 497.466V497.714H2172.14V504H2146.22ZM2191.97 504.799C2188.92 504.787 2186.29 504.036 2184.09 502.544C2181.9 501.053 2180.21 498.892 2179.03 496.063C2177.86 493.234 2177.28 489.831 2177.29 485.854C2177.29 481.888 2177.87 478.509 2179.05 475.715C2180.23 472.922 2181.92 470.797 2184.11 469.341C2186.31 467.873 2188.93 467.139 2191.97 467.139C2195.01 467.139 2197.63 467.873 2199.82 469.341C2202.02 470.809 2203.71 472.939 2204.9 475.733C2206.08 478.515 2206.67 481.888 2206.66 485.854C2206.66 489.843 2206.06 493.252 2204.88 496.081C2203.71 498.91 2202.03 501.07 2199.84 502.562C2197.65 504.053 2195.03 504.799 2191.97 504.799ZM2191.97 498.425C2194.06 498.425 2195.72 497.377 2196.96 495.282C2198.2 493.187 2198.82 490.044 2198.81 485.854C2198.81 483.096 2198.52 480.799 2197.96 478.964C2197.4 477.13 2196.61 475.751 2195.58 474.827C2194.56 473.904 2193.36 473.442 2191.97 473.442C2189.9 473.442 2188.24 474.478 2187 476.55C2185.76 478.621 2185.13 481.723 2185.12 485.854C2185.12 488.647 2185.4 490.979 2185.95 492.849C2186.52 494.708 2187.32 496.105 2188.35 497.04C2189.38 497.963 2190.59 498.425 2191.97 498.425Z" fill="#737370"/>
<line x1="1978.5" y1="353" x2="1978.5" y2="1088" stroke="#006CA9" stroke-width="5"/>
<line x1="2495.5" y1="541" x2="2495.5" y2="1088" stroke="#006CA9" stroke-width="5"/>
<line x1="2213.5" y1="439" x2="2213.5" y2="1088" stroke="#006CA9" stroke-width="5"/>
</svg>
